inDegrees=no
num_controls=7
num_derivatives=13
num_iterations=27
num_multipliers=7
num_parameters=0
num_slacks=7
num_states=26
objective=0.454882
objective_accelerations=0.000000
objective_balance=0.011715
objective_effort=0.016155
objective_height=0.427012
objective_ligament=0.000000
solver_duration=365.828563
status=Solve_Succeeded
success=true
DataType=double
version=3
OpenSimVersion=4.5
endheader
time	/jointset/ground_pelvis/pelvis_tilt/value	/jointset/ground_pelvis/pelvis_tx/value	/jointset/ground_pelvis/pelvis_ty/value	/jointset/hip_l/hip_flexion_l/value	/jointset/hip_l/hip_adduction_l/value	/jointset/hip_l/hip_rotation_l/value	/jointset/back/lumbar_extension/value	/jointset/patellofemoral_l/patellar_flexion_l/value	/jointset/knee_l/knee_flexion_l/value	/jointset/knee_l/knee_adduction_l/value	/jointset/knee_l/knee_rotation_l/value	/jointset/ankle_l/ankle_angle_l/value	/jointset/subtalar_l/subtalar_angle_l/value	/jointset/ground_pelvis/pelvis_tilt/speed	/jointset/ground_pelvis/pelvis_tx/speed	/jointset/ground_pelvis/pelvis_ty/speed	/jointset/hip_l/hip_flexion_l/speed	/jointset/hip_l/hip_adduction_l/speed	/jointset/hip_l/hip_rotation_l/speed	/jointset/back/lumbar_extension/speed	/jointset/patellofemoral_l/patellar_flexion_l/speed	/jointset/knee_l/knee_flexion_l/speed	/jointset/knee_l/knee_adduction_l/speed	/jointset/knee_l/knee_rotation_l/speed	/jointset/ankle_l/ankle_angle_l/speed	/jointset/subtalar_l/subtalar_angle_l/speed	/forceset/tau_hip_flexion_l	/forceset/tau_hip_adduction_l	/forceset/tau_hip_rotation_l	/forceset/tau_knee_flexion_l	/forceset/tau_ankle_angle_l	/forceset/tau_subtalar_angle_l	/forceset/tau_lumbar_extension	lambda_cid13_p0	lambda_cid13_p1	lambda_cid13_p2	lambda_cid13_p3	lambda_cid13_p4	lambda_cid13_p5	lambda_cid14_p0	/jointset/ground_pelvis/pelvis_tilt/accel	/jointset/ground_pelvis/pelvis_tx/accel	/jointset/ground_pelvis/pelvis_ty/accel	/jointset/hip_l/hip_flexion_l/accel	/jointset/hip_l/hip_adduction_l/accel	/jointset/hip_l/hip_rotation_l/accel	/jointset/back/lumbar_extension/accel	/jointset/patellofemoral_l/patellar_flexion_l/accel	/jointset/knee_l/knee_flexion_l/accel	/jointset/knee_l/knee_adduction_l/accel	/jointset/knee_l/knee_rotation_l/accel	/jointset/ankle_l/ankle_angle_l/accel	/jointset/subtalar_l/subtalar_angle_l/accel	gamma_cid13_p0	gamma_cid13_p1	gamma_cid13_p2	gamma_cid13_p3	gamma_cid13_p4	gamma_cid13_p5	gamma_cid14_p0
0	-0.1225823035982541	0.04080171532985367	0.9032464017139337	0.3774924667018715	-0.180977388615392	-0.05398334868524867	-0.01265067647494873	0.0322364824372015	0.03223648243721463	-0.001378649926444616	-0.05105786450208408	-0.04231377076293093	0.06495102635217201	0	0	0	0	0	0	0	0	0	0	0	0	0	0.1764209651352694	-0.04348858213078321	0.0176202233719597	-0.2243682285400949	0.2030368725777985	-0.03638747647916284	-0.1542405337753066	33.22321837948967	17.68834864394258	-12.02043314414147	20.20939084388463	-428.0476575984566	-10.82312767321026	-33.99234557598358	10.4649280564862	-4.538617717530476	-2.607701587867918	18.97735663129008	-24.78401803958795	11.62777865194679	-30.77066991693245	45.02680464415446	45.02680464415447	-45.12583471048841	2.099388593082729	14.58048198552607	-20.65466951214144	-8.535142826554173e-07	-7.297593828917437e-05	9.619481861479877e-05	-1.859078677698343e-05	5.350630694371463e-05	-7.5001732325919e-05	-1.338019667138074e-05
0.01	-0.1222024200351702	0.04061047942693317	0.9031399717467682	0.3782716951302094	-0.1819442265340583	-0.0535771621862375	-0.01388863710480192	0.03397241736753071	0.03397241736753321	-0.003145138067801177	-0.05092828039968893	-0.0417757698507185	0.0641368163263361	0.06084647100794965	-0.0347459886446752	-0.01913195003230861	0.1415097693218528	-0.1668181425286445	0.0670242785232968	-0.2168228291325243	0.2987876470248585	0.2987876470248582	-0.3051829653329277	0.02577440637041899	0.08972489982693242	-0.1413553428345393	0.1376898951010831	0.01199762002756127	0.01618353964577587	-0.2620986516093169	0.2633682230134828	-0.0468270122920991	-0.09193328929498777	44.30169071508632	21.40180563353706	-13.89145675853039	11.4883785411971	-552.9404604916722	-14.78376472437715	-34.04940939908732	1.622279787099492	-2.421128804485964	-1.2321339394266	9.585878396631726	-8.652451909716769	2.088539568111927	-12.52269488510261	15.04751991465408	15.04751991465402	-15.99725830515836	2.775795667754141	3.486627847222934	-7.653092347523569	-2.143091906942758e-06	-3.994604432682234e-05	5.488879346787502e-05	-9.551913668098797e-06	2.973604175014689e-05	-4.261711710782953e-05	-8.173267997079845e-06
0.02	-0.1216685171291761	0.04017607576425551	0.9029089838335783	0.3800356395145241	-0.1837835937880528	-0.05293097547887612	-0.0163717471207263	0.03724478380470872	0.03724478380470619	-0.006520002034554594	-0.05054908643185442	-0.04087689316705116	0.06255362773647162	0.03080386858185238	-0.04863355195142922	-0.02491158920491723	0.1969431912036585	-0.1745058670658763	0.04800004167023471	-0.2490298772126182	0.3072863013698147	0.3072863013698141	-0.3216751650843956	0.0499219730901416	0.07217515429170659	-0.1537957128056193	0.09895882506655437	0.06748382218595186	0.01474685591944124	-0.2998290746785802	0.3236995734491881	-0.05726654810498102	-0.02962604481500518	55.49762703461458	25.06120705756505	-15.714697443247	2.028480276359727	-676.9154262724488	-18.20451996349714	-34.1585919614943	-7.712886630323244	-0.3669326499462782	0.06276058407207485	1.762087143280664	7.042065558694572	-5.581924423324984	6.152486293553788	-13.03099389182607	-13.03099389182607	12.61231840580357	1.774020662943439	-6.874447086905658	5.128325060550379	-3.432669531230099e-06	-6.916150364470318e-06	1.358276832095126e-05	-5.130405592141632e-07	5.96577655657916e-06	-1.023250188974005e-05	-2.966339322778946e-06
0.03	-0.1216788145841354	0.03966837060338203	0.9026626377821292	0.3820888799497116	-0.185215769953577	-0.05268179930735701	-0.01864342073731494	0.03978555033792516	0.03978555033792336	-0.009172063794024379	-0.04998077562095155	-0.04044282242109107	0.06124860900676492	-0.02594239034478855	-0.05318576016027795	-0.02436392946787597	0.2124974256186498	-0.115527182749925	0.005291364978855443	-0.2143788934690436	0.2117013903271767	0.2117013903271765	-0.2149278699596445	0.06306427817635001	0.01980268360342404	-0.1093681847010078	0.09378693430550841	0.05987110487221929	0.01443356158946172	-0.2813856914531432	0.3051830296548925	-0.05507354952917574	-0.03207942386012793	51.47000065354001	24.08780541658163	-14.7300523913537	0.1947598681741708	-651.7676850172581	-17.26902449221831	-34.24619794720947	-3.618033501901497	-0.5411729844526124	0.05091952488622989	1.270385979542029	4.785032498868396	-3.099215947302755	0.760297310811782	-6.196509722812548	-6.196509722812517	8.777897027389827	0.9806929315713329	-3.644685026675794	3.775469514435151	-1.981536311291691e-06	-3.19735029010064e-06	6.752228731626974e-06	-1.079018030876752e-07	2.801274074433902e-06	-5.07567289777697e-06	-1.569143381675635e-06
0.04	-0.1220490822239734	0.03910678174479992	0.9024217984993259	0.3842613216068075	-0.1861663067497739	-0.0527564852338044	-0.0208408059372648	0.04169561375825025	0.04169561375825088	-0.01094226020991054	-0.04930177025917269	-0.04037768397539346	0.06032296612390719	-0.04119016839416886	-0.05941029149315786	-0.02381023547575775	0.2207834355909931	-0.07817799320107822	-0.01677237792284958	-0.2341721938833333	0.1811456787913419	0.1811456787913421	-0.1453020963717421	0.07206088326702678	-0.001611305760310285	-0.0779205434356585	0.08861504354426644	0.05225838755851662	0.01412026725937825	-0.2629423082277271	0.2866664858606104	-0.05288055095333334	-0.03453280290544497	47.38592900882077	23.12792108716061	-13.75166130814951	-1.243522142578737	-627.0326252260805	-16.58092765808088	-34.31353012074928	0.5868095451287879	-0.701397274752564	0.06396743508745931	0.3084422547510782	2.716166605273655	-1.452937665390126	-4.736370538018948	-0.02515399046549857	-0.02515399046549858	5.18801409843382	0.9448806638370965	-0.6827508219961044	2.5323476926979	-4.738935894104812e-07	-8.290266702957682e-08	6.325238960676192e-07	1.192218117448282e-07	6.163267912210491e-08	-4.802415599608282e-07	-2.504986309475341e-07
0.05	-0.1224228467410767	0.03848052740764522	0.9021882582084627	0.3864719825814267	-0.186808907763493	-0.05298509575530826	-0.02341723860789479	0.04350713085157163	0.04350713085157109	-0.01212825398329715	-0.04854648238492774	-0.04042241530105201	0.05967510853190044	-0.03256739724106428	-0.06555006261837026	-0.02274443825554599	0.2199035418272869	-0.04996251757649457	-0.02829636992104516	-0.2810550906293334	0.1811595785444636	0.1811595785444636	-0.09109848638272863	0.07822690638272368	-0.006824189722862605	-0.05114100261414886	0.07959864923737509	0.05372933172552419	0.01389577214214016	-0.2564552190131154	0.2832279262114982	-0.05300427720595104	-0.02656561812326992	46.33678990837685	23.05185880067454	-13.3814512211597	-3.262825815290551	-628.1533310237371	-16.4146121013224	-34.37707434362841	1.14925208389168	-0.5266643539260085	0.1508837196841302	-0.5030498976030205	2.931123822911178	-0.9041756519267884	-4.655361800219517	0.01497720279957616	0.01497720279953653	5.656316742112739	0.3369513672232366	-0.3640098600339102	2.827209762671874	-2.997976360543298e-07	6.274758637666365e-09	3.938960958252148e-07	4.121379963923642e-08	1.101640688918678e-07	-2.401995205039763e-07	-1.687372978806544e-07
0.06	-0.1226805353099502	0.03780159589473386	0.9019699754606428	0.3886304756772456	-0.1871579768645902	-0.05330935533377251	-0.02646072275745793	0.0453188499913444	0.04531884999134493	-0.01274825519818193	-0.04775263663317739	-0.04050396600166753	0.05931033684526698	-0.01797497874840014	-0.06994572664448684	-0.0207587268670925	0.2103498598367241	-0.0194716106775143	-0.03590218931493303	-0.3275824896684573	0.1811860880815273	0.1811860880815273	-0.03210358467461662	0.07977245876990741	-0.008975180751381479	-0.02130336236087057	0.07058225493026919	0.05520027589255608	0.01367127702480475	-0.2499681297985318	0.2797893665623972	-0.05312800345854007	-0.01859843334130391	45.26741160690761	22.98510387111162	-13.01930638817243	-5.198158689963003	-629.4273974039395	-16.29384566767636	-34.44010366064323	1.780739013040607	-0.3525758549334518	0.2479502687357994	-1.426315390620224	3.171252860152969	-0.6693031445285732	-4.665270996643594	-0.02263203367712056	-0.02263203367712056	6.146272442253506	0.02078651813444553	-0.0703722351895044	3.143967579051591	-1.818510203202868e-07	-3.192761348051464e-08	4.028925918066834e-07	-4.964185991638039e-08	2.760922075071711e-07	-1.835422936096237e-07	-1.390552666100368e-07
0.07000000000000001	-0.1227667314926364	0.03708568852236487	0.901774587275971	0.3906614629024588	-0.1872018324896529	-0.05369000648178776	-0.02996915148398071	0.04713912995337391	0.04713912995337423	-0.01277561433076835	-0.04696243836728583	-0.04059126210013329	0.05924833567231733	0.001341964986999465	-0.07311434858586227	-0.01832007738791742	0.1954863792027177	0.009950763537194726	-0.03948007703270248	-0.3742209881417558	0.1836949380629697	0.1836949380629697	0.02527006571233814	0.07781569702490708	-0.007928372043139814	0.008302393283445461	0.06456906846924147	0.0543341682207072	0.01361367153563549	-0.2441634259571503	0.2752818286314804	-0.05291109018269798	-0.013672078001172	44.04652288886843	22.83729034029833	-12.69033270457874	-6.047338109582527	-627.1043310504097	-16.10331418269185	-34.50236210978128	2.098059190833267	-0.280806507020823	0.2417044190800936	-1.570585929832768	2.715224574083865	-0.08990197389910802	-4.680799147824041	0.5114260259746912	0.5114260259746722	5.328695648674773	-0.371693817893109	0.2755288713855483	2.778730205376503	-6.204561042549849e-08	1.358735558558076e-07	1.543491781552513e-07	-5.114902780652353e-08	2.453326212842354e-07	2.402518179123124e-08	-6.087679226301422e-08
0.08	-0.1226415808105594	0.03634173470192544	0.9016035620124073	0.3925329710152973	-0.1869739653981738	-0.0540840105846801	-0.03394749717027386	0.04900925491760273	0.04900925491760353	-0.0122700800971191	-0.04620536497826933	-0.04065142582200729	0.05946436218546109	0.02429439420408886	-0.07555501625857335	-0.0158861426454637	0.1784540373670393	0.03487293263004178	-0.03857278029038272	-0.4215658816210631	0.1911550885212026	0.1911550885212026	0.07447508856961921	0.07314748339687042	-0.003548705432717941	0.03430217485795115	0.05855588200801405	0.05346806054888271	0.01355606604636769	-0.2383587221157948	0.2707742907005745	-0.05269417690682664	-0.008745722661234868	42.81363674113463	22.70115998463087	-12.37416612708455	-6.856500811403251	-624.8474753931404	-15.93186209934144	-34.56500447637286	2.507836109378462	-0.2069850012006329	0.2470073213915236	-1.860087630954644	2.271211835780557	0.2277337474892876	-4.806549997845248	0.9676280616809139	0.9676280616809139	4.512546936318739	-0.5215038584728403	0.5961993452464456	2.422772765089481	5.787972167320874e-08	3.169652762537105e-07	-1.108097135370127e-07	-4.689177687953929e-08	2.018835044265745e-07	2.413288022570216e-07	2.043048486313114e-08
